{"title":"Coldplay - Hymn For The Weekend (2016 Pop)","uid":13449481,"size":115891068,"categoryP":"video","categoryS":"music_videos","magnet":"?xt=urn:btih:ebb07c9429552db6279e219152364c291ee7e192&amp;dn=Coldplay+-+Hymn+For+The+Weekend+%282016+Pop%29&amp;tr=udp%3A%2F%2Ftracker.leechers-paradise.org%3A6969&amp;tr=udp%3A%2F%2Fzer0day.ch%3A1337&amp;tr=udp%3A%2F%2Fopen.demonii.com%3A1337&amp;tr=udp%3A%2F%2Ftracker.coppersurfer.tk%3A6969&amp;tr=udp%3A%2F%2Fexodus.desync.com%3A6969","seeders":42,"leechers":1,"uploader":"MeRaDil","files":1,"time":1454783515,"description":"COLDPLAY - HYMN FOR THE WEEKEND\r\n\r\n \nhttp://gifyu.com/images/Coldplay02.png\r\n \nhttp://gifyu.com/images/Coldplay01.png\r\n\r\n\r\nGeneral\r\nColdplay - Hymn For The Weekend\r\nFormat                                   : MPEG-4\r\nFormat profile                           : Base Media\r\nCodec ID                                 : isom\r\nFile size                                : 111 MiB\r\nDuration                                 : 4mn 20s\r\nOverall bit rate                         : 3 556 Kbps\r\nMusicVid name                            : Hymn for The Weekend\r\nPerformer                                : Coldplay\r\nGenre                                    : Pop\r\nContentType                              : Music Video\r\nRecorded date                            : 2016\r\nWriting application                      : Lavf56.32.100 / MeRaDil\r\nCover                                    : Yes\r\nComment                                  : Beyoncé\r\nReleasetime                              : UK/USA - january 29 - 2016\r\n\r\nVideo\r\nID                                       : 1\r\nFormat                                   : AVC\r\nFormat/Info                              : Advanced Video Codec\r\nFormat profile                           :   \r\nFormat settings, CABAC                   : Yes\r\nFormat settings, ReFrames                : 2 frames\r\nCodec ID                                 : avc1\r\nCodec ID/Info                            : Advanced Video Coding\r\nDuration                                 : 4mn 20s\r\nBit rate                                 : 3 270 Kbps\r\nWidth                                    : 1 920 pixels\r\nHeight                                   : 1 080 pixels\r\nDisplay aspect ratio                     : 16:9\r\nFrame rate mode                          : Variable\r\nFrame rate                               : 23.976 fps\r\nMinimum frame rate                       : 23.974 fps\r\nMaximum frame rate                       : 23.981 fps\r\nColor space                              : YUV\r\nChroma subsampling                       : 4:2:0\r\nBit depth                                : 8 bits\r\nScan type                                : Progressive\r\nBits/(Pixel*Frame)                       : 0.066\r\nStream size                              : 102 MiB (92%)\r\n\r\nAudio\r\nID                                       : 2\r\nFormat                                   : AAC\r\nFormat/Info                              : Advanced Audio Codec\r\nFormat profile                           : LC\r\nCodec ID                                 : 40\r\nDuration                                 : 4mn 20s\r\nBit rate mode                            : Constant\r\nBit rate                                 : 256 Kbps\r\nChannel(s)                               : 2 channels\r\nChannel positions                        : Front: L R\r\nSampling rate                            : 44.1 KHz\r\nCompression mode                         : Lossy\r\nStream size                              : 7.96 MiB (7%)\r\n\r\nBeyoncé is featuring in the video","torrent":{"xt":"urn:btih:ebb07c9429552db6279e219152364c291ee7e192","amp;dn":"Coldplay+-+Hymn+For+The+Weekend+%282016+Pop%29","amp;tr":["udp%3A%2F%2Ftracker.leechers-paradise.org%3A6969","udp%3A%2F%2Fzer0day.ch%3A1337","udp%3A%2F%2Fopen.demonii.com%3A1337","udp%3A%2F%2Ftracker.coppersurfer.tk%3A6969","udp%3A%2F%2Fexodus.desync.com%3A6969"],"infoHash":"ebb07c9429552db6279e219152364c291ee7e192","infoHashBuffer":{"type":"Buffer","data":[235,176,124,148,41,85,45,182,39,158,33,145,82,54,76,41,30,231,225,146]},"announce":[],"urlList":[]}}